<!DOCTYPE svg PUBLIC "-//W3C//DTD SVG 1.1//EN" "http://www.w3.org/Graphics/SVG/1.1/DTD/svg11.dtd">
<svg version="1.1" id="full-logo" xmlns="http://www.w3.org/2000/svg" xmlns:xlink="http://www.w3.org/1999/xlink"
	 width="250px" height="52px" viewBox="0 0 250 52" xml:space="preserve">
<path fill="#4E9D2D" d="M21.466,23.77c0-9.512,4.642-17.744,18.455-17.744C39.921,15.559,33.649,23.77,21.466,23.77"/>
<path fill="#4E9D2D" d="M43.597,48.746c2.587,0,4.575-0.369,6.617-1.121c0-7.527-4.49-12.906-12.423-16.783
	c-6.069-3.043-13.542-4.619-20.355-4.619C20.425,17.248,18.246,6.112,15.349,0c-3.21,6.404-5.214,17.382-2.131,26.313
	c-6.053,0.44-10.854,3.078-12.885,6.556c-0.152,0.264-0.461,0.83-0.276,0.926c0.146,0.078,0.379-0.158,0.523-0.291
	c2.188-2.024,5.083-3.012,7.863-3.012c6.427,0,10.961,5.334,14.166,8.536C29.499,45.917,36.233,48.759,43.597,48.746"/>
<g>
	<path d="M70.14,13.392l-3.35,1.716c-0.168,0.084-0.335,0.209-0.502,0.209c-0.126,0-0.252-0.083-0.336-0.293
		c-0.753-1.8-1.843-2.47-2.973-2.47h-2.763c-1.633,0-3.016,1.381-3.016,3.014V27.96c0,1.633,1.383,3.015,3.016,3.015h2.051
		c1.675,0,2.974-1.339,2.974-3.015v-1.967c0-0.293-0.126-0.418-0.42-0.418h-3.936c-0.293,0-0.419-0.127-0.419-0.42v-3.559
		c0-0.293,0.126-0.418,0.419-0.418h8.751c0.293,0,0.418,0.125,0.418,0.418v6.363c0,4.354-3.057,7.41-7.787,7.41h-2.051
		c-4.773,0-7.787-3.056-7.787-7.41V15.569c0-4.354,3.014-7.41,7.787-7.41h2.763c3.476,0,5.358,1.423,6.614,3.391
		c0.377,0.628,0.796,1.298,0.796,1.549C70.391,13.225,70.308,13.308,70.14,13.392z"/>
	<path d="M83.454,34.953h-9.42c-0.293,0-0.421-0.125-0.421-0.418V8.996c0-0.293,0.128-0.419,0.421-0.419h9.42
		c4.771,0,7.787,3.057,7.787,7.788v0.418c0,1.549-1.007,3.349-2.221,4.521c-0.126,0.083-0.167,0.209-0.167,0.293
		s0.041,0.209,0.167,0.293c1.214,1.172,2.221,3.182,2.221,4.73v0.629C91.241,31.98,88.226,34.953,83.454,34.953z M86.468,15.988
		c0-1.633-1.382-3.015-3.014-3.015h-4.605c-0.293,0-0.419,0.126-0.419,0.419v5.568c0,0.293,0.126,0.419,0.419,0.419h4.605
		c1.632,0,3.014-1.382,3.014-3.014V15.988z M86.468,26.748c0-1.674-1.34-2.973-3.014-2.973h-4.605c-0.293,0-0.419,0.125-0.419,0.418
		v5.945c0,0.293,0.126,0.418,0.419,0.418h4.605c1.632,0,3.014-1.299,3.014-3.014V26.748z"/>
	<path d="M99.614,34.953h-3.977c-0.293,0-0.419-0.125-0.419-0.418V8.996c0-0.293,0.126-0.419,0.419-0.419h3.977
		c0.294,0,0.42,0.126,0.42,0.419v25.539C100.033,34.828,99.907,34.953,99.614,34.953z"/>
	<path d="M120.506,12.973h-9.964c-0.293,0-0.419,0.126-0.419,0.419v5.568c0,0.293,0.126,0.419,0.419,0.419h8.164
		c0.293,0,0.418,0.125,0.418,0.418v3.559c0,0.293-0.125,0.419-0.418,0.419h-8.164c-0.293,0-0.419,0.125-0.419,0.418v10.342
		c0,0.293-0.126,0.418-0.419,0.418h-3.978c-0.293,0-0.419-0.125-0.419-0.418V8.996c0-0.293,0.126-0.419,0.419-0.419h14.778
		c0.294,0,0.419,0.126,0.419,0.419v3.559C120.925,12.848,120.8,12.973,120.506,12.973z"/>
</g>
<line stroke="#000000" stroke-width="0.5" x1="130" y1="3.902" x2="130" y2="38.886"/>
<text text-anchor="left" x="137" y="18" font-family="Arial" font-size="13">Global Biodiversity</text>
<text text-anchor="left" x="137" y="35" font-family="Arial" font-size="13">Information Facility</text>
</svg>
